<svg width="237" height="47" viewBox="0 0 237 47" fill="none" xmlns="http://www.w3.org/2000/svg">
<path d="M50.5 2H6.5C4.29086 2 2.5 3.79086 2.5 6V26C2.5 28.2091 4.29086 30 6.5 30H50.5C52.7091 30 54.5 28.2091 54.5 26V6C54.5 3.79086 52.7091 2 50.5 2Z" stroke="#0080FF" stroke-width="4" stroke-linejoin="round"/>
<path d="M15.254 43.4564C17.7393 43.4564 19.754 41.4417 19.754 38.9564C19.754 36.4711 17.7393 34.4564 15.254 34.4564C12.7687 34.4564 10.754 36.4711 10.754 38.9564C10.754 41.4417 12.7687 43.4564 15.254 43.4564Z" fill="#0080FF"/>
<path d="M70.9128 43.4564C73.3981 43.4564 75.4128 41.4417 75.4128 38.9564C75.4128 36.4711 73.3981 34.4564 70.9128 34.4564C68.4275 34.4564 66.4128 36.4711 66.4128 38.9564C66.4128 41.4417 68.4275 43.4564 70.9128 43.4564Z" fill="#0080FF"/>
<path d="M62.1519 15.2656L62.2963 23.6257C62.3529 26.8985 65.0221 29.5221 68.2954 29.5221H78.1189C83.7212 29.5221 86.267 22.525 81.9745 18.9249L72.0066 10.5647C68.0649 7.25874 62.063 10.1217 62.1519 15.2656Z" stroke="#0080FF" stroke-width="4" stroke-linejoin="round"/>
<path d="M197.092 43.6567V42.4726C197.092 41.934 197.106 41.4836 197.135 41.1214C197.174 40.7499 197.247 40.4388 197.353 40.1881C197.46 39.9373 197.63 39.7237 197.863 39.5473C198.096 39.3708 198.416 39.2036 198.823 39.0458L201.268 38.0706C201.607 37.9406 201.859 37.8199 202.024 37.7085C202.189 37.5877 202.301 37.4438 202.359 37.2766C202.417 37.1095 202.446 36.8912 202.446 36.6219C202.446 36.2226 202.378 35.93 202.242 35.7443C202.116 35.5585 201.884 35.4378 201.544 35.3821C201.214 35.3264 200.749 35.2985 200.147 35.2985C199.924 35.2985 199.648 35.3078 199.318 35.3264C198.998 35.3449 198.658 35.3682 198.299 35.396C197.95 35.4239 197.615 35.4517 197.295 35.4796V34.2398C197.586 34.1841 197.926 34.1376 198.314 34.1005C198.702 34.0633 199.1 34.0308 199.507 34.003C199.924 33.9751 200.312 33.9612 200.671 33.9612C201.146 33.9612 201.588 33.9891 201.995 34.0448C202.403 34.0912 202.761 34.198 203.072 34.3652C203.392 34.5323 203.639 34.7877 203.814 35.1313C203.998 35.4657 204.09 35.9207 204.09 36.4965C204.09 37.063 204.022 37.5181 203.887 37.8617C203.761 38.196 203.567 38.47 203.305 38.6836C203.043 38.8879 202.703 39.069 202.286 39.2269L199.492 40.3274C199.25 40.4202 199.07 40.5224 198.954 40.6338C198.838 40.7453 198.765 40.8939 198.736 41.0796C198.707 41.2653 198.692 41.5068 198.692 41.804V42.3055H204.09V43.6567H197.092Z" fill="#171717"/>
<path d="M210.788 43.6567V41.5254H205.667V40.3413L209.493 34.0726H211.298L207.471 40.1881H210.788L211.181 37.193H212.433V40.1881H213.844V41.5254H212.433V43.6567H210.788Z" fill="#171717"/>
<path d="M214.347 44.4229L218.566 33.3065H219.963L215.729 44.4229H214.347Z" fill="#171717"/>
<path d="M221.752 43.6567L225.71 35.4239H220.457V34.0726H227.5V35.2985L223.571 43.6567H221.752Z" fill="#171717"/>
<path d="M186.528 41.5836L189.226 35.4536H190.532L186.997 43.3874H186.059L182.539 35.4536H183.844L186.528 41.5836ZM183.448 35.4536V43.3874H182.092V35.4536H183.448ZM189.564 43.3874V35.4536H190.928V43.3874H189.564Z" fill="#171717"/>
<path d="M177.296 43.534C176.744 43.534 176.243 43.4411 175.793 43.2554C175.348 43.0647 174.965 42.7983 174.642 42.4561C174.324 42.114 174.08 41.7082 173.909 41.2389C173.738 40.7697 173.652 40.2564 173.652 39.6991V39.3911C173.652 38.7459 173.748 38.1715 173.938 37.668C174.129 37.1596 174.388 36.7295 174.715 36.3775C175.043 36.0255 175.414 35.7591 175.83 35.5782C176.245 35.3974 176.676 35.3069 177.12 35.3069C177.688 35.3069 178.176 35.4047 178.587 35.6002C179.002 35.7958 179.342 36.0695 179.606 36.4215C179.87 36.7686 180.066 37.1792 180.193 37.6533C180.32 38.1226 180.383 38.6359 180.383 39.1932V39.8018H174.459V38.6946H179.027V38.5919C179.007 38.2399 178.934 37.8978 178.807 37.5654C178.685 37.2329 178.489 36.9592 178.22 36.7441C177.951 36.529 177.585 36.4215 177.12 36.4215C176.812 36.4215 176.529 36.4875 176.27 36.6195C176.011 36.7466 175.788 36.9372 175.603 37.1914C175.417 37.4456 175.273 37.756 175.17 38.1226C175.067 38.4893 175.016 38.9121 175.016 39.3911V39.6991C175.016 40.0755 175.067 40.4299 175.17 40.7623C175.278 41.0898 175.432 41.3783 175.632 41.6276C175.837 41.8769 176.084 42.0724 176.373 42.2142C176.666 42.3559 176.998 42.4268 177.37 42.4268C177.849 42.4268 178.255 42.329 178.587 42.1335C178.919 41.938 179.21 41.6764 179.46 41.3489L180.281 42.0015C180.11 42.2606 179.892 42.5075 179.628 42.7421C179.364 42.9767 179.039 43.1674 178.653 43.314C178.272 43.4607 177.819 43.534 177.296 43.534Z" fill="#171717"/>
<path d="M170.514 42.0308V37.9466C170.514 37.6338 170.45 37.3625 170.323 37.1327C170.201 36.8981 170.015 36.7172 169.766 36.5901C169.517 36.463 169.209 36.3995 168.842 36.3995C168.5 36.3995 168.199 36.4581 167.94 36.5755C167.686 36.6928 167.486 36.8468 167.339 37.0374C167.197 37.2281 167.126 37.4334 167.126 37.6533H165.77C165.77 37.3698 165.843 37.0887 165.99 36.8101C166.136 36.5315 166.347 36.2797 166.62 36.0549C166.899 35.8251 167.231 35.6442 167.618 35.5123C168.009 35.3754 168.444 35.3069 168.923 35.3069C169.5 35.3069 170.008 35.4047 170.448 35.6002C170.893 35.7958 171.24 36.0915 171.489 36.4875C171.743 36.8785 171.87 37.3698 171.87 37.9613V41.6569C171.87 41.9209 171.892 42.2019 171.936 42.5001C171.985 42.7983 172.056 43.055 172.149 43.27V43.3874H170.734C170.665 43.2309 170.612 43.0232 170.573 42.7641C170.533 42.5001 170.514 42.2557 170.514 42.0308ZM170.749 38.5772L170.763 39.5305H169.392C169.006 39.5305 168.661 39.5622 168.358 39.6258C168.055 39.6844 167.801 39.7749 167.596 39.8971C167.39 40.0193 167.234 40.1733 167.126 40.359C167.019 40.5399 166.965 40.7526 166.965 40.997C166.965 41.2463 167.021 41.4736 167.134 41.6789C167.246 41.8842 167.415 42.048 167.64 42.1702C167.869 42.2875 168.15 42.3461 168.483 42.3461C168.898 42.3461 169.265 42.2582 169.583 42.0822C169.9 41.9062 170.152 41.6911 170.338 41.4369C170.529 41.1827 170.631 40.9359 170.646 40.6963L171.225 41.3489C171.191 41.5542 171.098 41.7815 170.946 42.0308C170.795 42.2802 170.592 42.5197 170.338 42.7494C170.089 42.9743 169.79 43.1625 169.443 43.314C169.101 43.4607 168.715 43.534 168.285 43.534C167.747 43.534 167.275 43.4289 166.87 43.2187C166.469 43.0085 166.156 42.7274 165.931 42.3755C165.711 42.0186 165.601 41.6202 165.601 41.1803C165.601 40.755 165.684 40.381 165.85 40.0584C166.017 39.7309 166.256 39.4596 166.569 39.2445C166.882 39.0245 167.258 38.8583 167.698 38.7459C168.138 38.6335 168.629 38.5772 169.172 38.5772H170.749Z" fill="#171717"/>
<path d="M161.957 35.4536V43.3874H160.593V35.4536H161.957ZM164.619 35.4536V36.5535H157.983V35.4536H164.619Z" fill="#171717"/>
<path d="M149.961 39.5085V39.3398C149.961 38.7679 150.044 38.2375 150.21 37.7487C150.376 37.2549 150.616 36.8272 150.929 36.4655C151.242 36.0989 151.62 35.8153 152.065 35.6149C152.51 35.4096 153.009 35.3069 153.561 35.3069C154.118 35.3069 154.619 35.4096 155.064 35.6149C155.514 35.8153 155.895 36.0989 156.208 36.4655C156.526 36.8272 156.768 37.2549 156.934 37.7487C157.1 38.2375 157.183 38.7679 157.183 39.3398V39.5085C157.183 40.0804 157.1 40.6108 156.934 41.0996C156.768 41.5885 156.526 42.0162 156.208 42.3828C155.895 42.7445 155.516 43.0281 155.072 43.2334C154.632 43.4338 154.133 43.534 153.576 43.534C153.019 43.534 152.517 43.4338 152.073 43.2334C151.628 43.0281 151.247 42.7445 150.929 42.3828C150.616 42.0162 150.376 41.5885 150.21 41.0996C150.044 40.6108 149.961 40.0804 149.961 39.5085ZM151.317 39.3398V39.5085C151.317 39.9044 151.364 40.2784 151.457 40.6303C151.55 40.9774 151.689 41.2854 151.875 41.5542C152.065 41.8231 152.302 42.0357 152.586 42.1922C152.869 42.3437 153.199 42.4195 153.576 42.4195C153.947 42.4195 154.272 42.3437 154.551 42.1922C154.835 42.0357 155.069 41.8231 155.255 41.5542C155.441 41.2854 155.58 40.9774 155.673 40.6303C155.771 40.2784 155.82 39.9044 155.82 39.5085V39.3398C155.82 38.9488 155.771 38.5797 155.673 38.2326C155.58 37.8807 155.438 37.5702 155.248 37.3014C155.062 37.0276 154.827 36.8126 154.544 36.6561C154.265 36.4997 153.938 36.4215 153.561 36.4215C153.19 36.4215 152.862 36.4997 152.579 36.6561C152.3 36.8126 152.065 37.0276 151.875 37.3014C151.689 37.5702 151.55 37.8807 151.457 38.2326C151.364 38.5797 151.317 38.9488 151.317 39.3398Z" fill="#171717"/>
<path d="M147.094 32H148.208C148.208 32.4791 148.135 32.8603 147.988 33.1439C147.842 33.4225 147.641 33.6376 147.387 33.7891C147.138 33.9407 146.854 34.0555 146.537 34.1338C146.224 34.212 145.899 34.2877 145.561 34.3611C145.141 34.4491 144.75 34.5884 144.388 34.779C144.031 34.9648 143.723 35.2287 143.464 35.5709C143.21 35.9131 143.022 36.3579 142.9 36.9054C142.782 37.4529 142.751 38.13 142.804 38.9365V39.6111H141.69V38.9365C141.69 38.0322 141.775 37.2427 141.946 36.5681C142.122 35.8936 142.369 35.3241 142.687 34.8597C143.005 34.3953 143.381 34.0262 143.816 33.7525C144.256 33.4787 144.74 33.2905 145.268 33.1879C145.649 33.1145 145.977 33.0363 146.251 32.9532C146.524 32.8652 146.732 32.7479 146.874 32.6013C147.021 32.4546 147.094 32.2542 147.094 32ZM145.488 35.9082C146.006 35.9082 146.468 35.9987 146.874 36.1795C147.28 36.3604 147.624 36.6121 147.908 36.9348C148.191 37.2574 148.406 37.6387 148.553 38.0786C148.705 38.5137 148.78 38.9879 148.78 39.5011V39.6625C148.78 40.2148 148.7 40.7281 148.538 41.2023C148.382 41.6716 148.15 42.0822 147.842 42.4341C147.539 42.7812 147.167 43.0525 146.727 43.2481C146.292 43.4436 145.796 43.5414 145.239 43.5414C144.681 43.5414 144.183 43.4436 143.743 43.2481C143.308 43.0525 142.936 42.7812 142.628 42.4341C142.32 42.0822 142.086 41.6716 141.924 41.2023C141.768 40.7281 141.69 40.2148 141.69 39.6625V39.5011C141.69 39.3789 141.712 39.2592 141.756 39.1419C141.8 39.0245 141.854 38.9048 141.917 38.7826C141.986 38.6604 142.047 38.5308 142.1 38.3939C142.281 37.954 142.528 37.5458 142.841 37.1694C143.159 36.793 143.538 36.4899 143.978 36.2602C144.422 36.0255 144.926 35.9082 145.488 35.9082ZM145.224 37.0154C144.725 37.0154 144.315 37.1303 143.992 37.3601C143.674 37.5898 143.437 37.8953 143.281 38.2766C143.125 38.653 143.046 39.0612 143.046 39.5011V39.6625C143.046 40.034 143.09 40.3859 143.178 40.7183C143.266 41.0507 143.398 41.3465 143.574 41.6056C143.755 41.8598 143.982 42.0602 144.256 42.2068C144.535 42.3535 144.862 42.4268 145.239 42.4268C145.615 42.4268 145.94 42.3535 146.214 42.2068C146.488 42.0602 146.713 41.8598 146.889 41.6056C147.065 41.3465 147.197 41.0507 147.285 40.7183C147.373 40.3859 147.417 40.034 147.417 39.6625V39.5011C147.417 39.1687 147.373 38.8534 147.285 38.5553C147.197 38.2571 147.062 37.9931 146.881 37.7633C146.705 37.5336 146.478 37.3527 146.199 37.2207C145.926 37.0839 145.6 37.0154 145.224 37.0154Z" fill="#171717"/>
<path d="M138.515 42.0308V37.9466C138.515 37.6338 138.451 37.3625 138.324 37.1327C138.202 36.8981 138.016 36.7172 137.767 36.5901C137.518 36.463 137.21 36.3995 136.843 36.3995C136.501 36.3995 136.2 36.4581 135.941 36.5755C135.687 36.6928 135.487 36.8468 135.34 37.0374C135.198 37.2281 135.127 37.4334 135.127 37.6533H133.771C133.771 37.3698 133.844 37.0887 133.991 36.8101C134.137 36.5315 134.348 36.2797 134.621 36.0549C134.9 35.8251 135.232 35.6442 135.619 35.5123C136.01 35.3754 136.445 35.3069 136.924 35.3069C137.501 35.3069 138.009 35.4047 138.449 35.6002C138.894 35.7958 139.241 36.0915 139.49 36.4875C139.744 36.8785 139.871 37.3698 139.871 37.9613V41.6569C139.871 41.9209 139.893 42.2019 139.937 42.5001C139.986 42.7983 140.057 43.055 140.15 43.27V43.3874H138.735C138.666 43.2309 138.613 43.0232 138.574 42.7641C138.534 42.5001 138.515 42.2557 138.515 42.0308ZM138.749 38.5772L138.764 39.5305H137.393C137.007 39.5305 136.662 39.5622 136.359 39.6258C136.056 39.6844 135.802 39.7749 135.597 39.8971C135.391 40.0193 135.235 40.1733 135.127 40.359C135.02 40.5399 134.966 40.7526 134.966 40.997C134.966 41.2463 135.022 41.4736 135.135 41.6789C135.247 41.8842 135.416 42.048 135.641 42.1702C135.87 42.2875 136.151 42.3461 136.484 42.3461C136.899 42.3461 137.266 42.2582 137.584 42.0822C137.901 41.9062 138.153 41.6911 138.339 41.4369C138.53 41.1827 138.632 40.9359 138.647 40.6963L139.226 41.3489C139.192 41.5542 139.099 41.7815 138.947 42.0308C138.796 42.2802 138.593 42.5197 138.339 42.7494C138.09 42.9743 137.791 43.1625 137.444 43.314C137.102 43.4607 136.716 43.534 136.286 43.534C135.748 43.534 135.276 43.4289 134.871 43.2187C134.47 43.0085 134.157 42.7274 133.932 42.3755C133.712 42.0186 133.602 41.6202 133.602 41.1803C133.602 40.755 133.685 40.381 133.851 40.0584C134.018 39.7309 134.257 39.4596 134.57 39.2445C134.883 39.0245 135.259 38.8583 135.699 38.7459C136.139 38.6335 136.63 38.5772 137.173 38.5772H138.749Z" fill="#171717"/>
<path d="M126.761 36.9788V46.4377H125.397V35.4536H126.644L126.761 36.9788ZM132.106 39.3545V39.5085C132.106 40.0853 132.038 40.6206 131.901 41.1143C131.764 41.6031 131.564 42.0284 131.3 42.3901C131.041 42.7519 130.72 43.033 130.339 43.2334C129.958 43.4338 129.52 43.534 129.027 43.534C128.523 43.534 128.078 43.4509 127.692 43.2847C127.306 43.1185 126.978 42.8765 126.71 42.5588C126.441 42.241 126.226 41.8598 126.064 41.4149C125.908 40.9701 125.8 40.469 125.742 39.9118V39.0905C125.8 38.5039 125.91 37.9784 126.072 37.514C126.233 37.0496 126.446 36.6537 126.71 36.3262C126.978 35.9938 127.303 35.742 127.685 35.5709C128.066 35.3949 128.506 35.3069 129.005 35.3069C129.503 35.3069 129.946 35.4047 130.332 35.6002C130.718 35.7909 131.043 36.0646 131.307 36.4215C131.571 36.7783 131.769 37.2061 131.901 37.7047C132.038 38.1984 132.106 38.7483 132.106 39.3545ZM130.742 39.5085V39.3545C130.742 38.9585 130.701 38.587 130.618 38.2399C130.535 37.888 130.405 37.58 130.229 37.3161C130.058 37.0472 129.838 36.837 129.569 36.6855C129.3 36.529 128.98 36.4508 128.609 36.4508C128.266 36.4508 127.968 36.5095 127.714 36.6268C127.465 36.7441 127.252 36.903 127.076 37.1034C126.9 37.2989 126.756 37.5238 126.644 37.778C126.536 38.0273 126.455 38.2864 126.402 38.5552V40.4544C126.499 40.7965 126.636 41.1192 126.812 41.4223C126.988 41.7204 127.223 41.9624 127.516 42.1482C127.809 42.329 128.178 42.4195 128.623 42.4195C128.99 42.4195 129.305 42.3437 129.569 42.1922C129.838 42.0357 130.058 41.8231 130.229 41.5542C130.405 41.2854 130.535 40.9774 130.618 40.6303C130.701 40.2784 130.742 39.9044 130.742 39.5085Z" fill="#171717"/>
<path d="M111.135 38.1813H113.518C114.159 38.1813 114.699 38.2937 115.139 38.5186C115.579 38.7386 115.911 39.0441 116.136 39.4352C116.366 39.8213 116.481 40.2613 116.481 40.755C116.481 41.1216 116.417 41.4663 116.29 41.7889C116.163 42.1066 115.972 42.3853 115.718 42.6248C115.469 42.8643 115.158 43.0525 114.787 43.1894C114.42 43.3214 113.997 43.3874 113.518 43.3874H110.145V35.4536H111.502V42.2728H113.518C113.909 42.2728 114.222 42.202 114.457 42.0602C114.692 41.9184 114.86 41.7351 114.963 41.5103C115.066 41.2854 115.117 41.0508 115.117 40.8063C115.117 40.5668 115.066 40.3322 114.963 40.1024C114.86 39.8727 114.692 39.682 114.457 39.5305C114.222 39.3741 113.909 39.2958 113.518 39.2958H111.135V38.1813ZM119.304 35.4536V43.3874H117.947V35.4536H119.304Z" fill="#171717"/>
<path d="M103.436 41.5836L106.135 35.4536H107.44L103.905 43.3874H102.967L99.4473 35.4536H100.752L103.436 41.5836ZM100.357 35.4536V43.3874H99V35.4536H100.357ZM106.472 43.3874V35.4536H107.836V43.3874H106.472Z" fill="#171717"/>
<path d="M220.005 22.3369C218.689 22.3369 217.593 22.2572 216.716 22.0978C215.84 21.9383 215.152 21.6793 214.654 21.3205C214.155 20.9618 213.787 20.4835 213.548 19.8856C213.328 19.2877 213.179 18.5404 213.099 17.6436C213.039 16.7467 213.01 15.6805 213.01 14.4449C213.01 13.2093 213.039 12.153 213.099 11.2761C213.179 10.3793 213.328 9.63192 213.548 9.03404C213.787 8.43615 214.155 7.95785 214.654 7.59912C215.152 7.24039 215.84 6.99127 216.716 6.85176C217.593 6.69233 218.689 6.61261 220.005 6.61261C221.32 6.61261 222.406 6.69233 223.263 6.85176C224.14 6.99127 224.828 7.24039 225.326 7.59912C225.844 7.95785 226.213 8.43615 226.432 9.03404C226.671 9.63192 226.821 10.3793 226.88 11.2761C226.96 12.153 227 13.2093 227 14.4449C227 15.6805 226.96 16.7467 226.88 17.6436C226.821 18.5404 226.671 19.2877 226.432 19.8856C226.213 20.4835 225.844 20.9618 225.326 21.3205C224.828 21.6793 224.14 21.9383 223.263 22.0978C222.406 22.2572 221.32 22.3369 220.005 22.3369ZM220.005 19.1383C220.742 19.1383 221.32 19.0884 221.739 18.9888C222.177 18.8891 222.476 18.6898 222.635 18.3909C222.815 18.072 222.924 17.5937 222.964 16.956C223.004 16.3182 223.024 15.4812 223.024 14.4449C223.024 13.4085 223.004 12.5815 222.964 11.9637C222.924 11.3259 222.815 10.8576 222.635 10.5586C222.476 10.2398 222.177 10.0405 221.739 9.96076C221.32 9.86111 220.742 9.81128 220.005 9.81128C219.247 9.81128 218.66 9.86111 218.241 9.96076C217.822 10.0405 217.524 10.2398 217.344 10.5586C217.165 10.8576 217.055 11.3259 217.015 11.9637C216.995 12.5815 216.985 13.4085 216.985 14.4449C216.985 15.4812 216.995 16.3182 217.015 16.956C217.055 17.5937 217.165 18.072 217.344 18.3909C217.524 18.6898 217.822 18.8891 218.241 18.9888C218.66 19.0884 219.247 19.1383 220.005 19.1383Z" fill="#171717"/>
<path d="M201.92 28.256C201.282 28.256 200.625 28.236 199.947 28.1962C199.289 28.1763 198.671 28.1364 198.094 28.0766C197.516 28.0368 197.037 27.977 196.659 27.8972V24.9676C197.057 24.9876 197.506 25.0075 198.004 25.0274C198.502 25.0473 199.01 25.0573 199.528 25.0573C200.047 25.0573 200.525 25.0573 200.963 25.0573C202 25.0573 202.807 25.0075 203.385 24.9078C203.963 24.8082 204.391 24.6189 204.67 24.3398C204.969 24.0808 205.159 23.6822 205.238 23.1441C205.318 22.6259 205.358 21.9383 205.358 21.0814V20.1846H205.149C204.87 20.7027 204.501 21.1113 204.042 21.4102C203.604 21.6892 203.106 21.8786 202.548 21.9782C202.01 22.0779 201.412 22.1277 200.754 22.1277C199.797 22.1277 198.98 22.0081 198.303 21.7689C197.645 21.5298 197.107 21.1212 196.688 20.5433C196.27 19.9653 195.971 19.1781 195.792 18.1816C195.612 17.1852 195.523 15.9396 195.523 14.4449C195.523 12.9302 195.612 11.6747 195.792 10.6782C195.991 9.66181 196.3 8.86463 196.718 8.28668C197.137 7.6888 197.675 7.26032 198.333 7.00123C198.99 6.74215 199.797 6.61261 200.754 6.61261C201.332 6.61261 201.91 6.6724 202.488 6.79197C203.066 6.89162 203.594 7.10088 204.072 7.41975C204.571 7.71869 204.969 8.16711 205.268 8.76499H205.477L205.597 6.85176H209.304V20.3041C209.304 21.6793 209.234 22.8651 209.095 23.8615C208.955 24.8779 208.646 25.705 208.168 26.3428C207.69 27.0004 206.952 27.4787 205.956 27.7777C204.979 28.0965 203.634 28.256 201.92 28.256ZM202.428 18.7795C203.086 18.7795 203.604 18.6998 203.983 18.5404C204.381 18.3809 204.68 18.1318 204.879 17.793C205.079 17.4343 205.208 16.9759 205.268 16.4179C205.328 15.8599 205.358 15.1922 205.358 14.415C205.358 13.6577 205.328 13 205.268 12.442C205.208 11.8839 205.079 11.4256 204.879 11.0668C204.68 10.6882 204.381 10.4191 203.983 10.2597C203.604 10.1003 203.086 10.0205 202.428 10.0205C201.771 10.0205 201.242 10.0704 200.844 10.17C200.445 10.2497 200.146 10.4391 199.947 10.738C199.768 11.017 199.648 11.4555 199.588 12.0533C199.528 12.6313 199.499 13.4185 199.499 14.415C199.499 15.4115 199.528 16.1987 199.588 16.7766C199.648 17.3346 199.768 17.7631 199.947 18.0621C200.146 18.3411 200.445 18.5304 200.844 18.6301C201.242 18.7297 201.771 18.7795 202.428 18.7795Z" fill="#171717"/>
<path d="M184.413 22.0978V6.85176H188.119L188.239 9.48245H188.478C188.737 8.72513 189.086 8.13721 189.524 7.71869C189.983 7.30017 190.531 7.0112 191.169 6.85176C191.806 6.69233 192.534 6.61261 193.351 6.61261V10.3793C192.055 10.3793 191.039 10.5586 190.302 10.9174C189.584 11.2761 189.076 11.864 188.777 12.6811C188.498 13.4982 188.359 14.6043 188.359 15.9994V22.0978H184.413Z" fill="#171717"/>
<path d="M171.246 22.3369C170.27 22.3369 169.443 22.1974 168.765 21.9184C168.087 21.6195 167.569 21.1412 167.211 20.4835C166.872 19.8059 166.702 18.919 166.702 17.8229C166.702 16.6471 166.842 15.7204 167.121 15.0428C167.4 14.3452 167.888 13.847 168.586 13.5481C169.283 13.2292 170.25 13.0697 171.485 13.0697C171.685 13.0697 171.964 13.0797 172.322 13.0996C172.681 13.0996 173.09 13.1096 173.548 13.1295C174.006 13.1295 174.465 13.1395 174.923 13.1594C175.382 13.1594 175.8 13.1694 176.179 13.1893V12.5914C176.179 11.9338 176.129 11.4156 176.029 11.0369C175.93 10.6583 175.74 10.3793 175.461 10.1999C175.182 10.0205 174.774 9.91093 174.236 9.87107C173.698 9.83121 173 9.81128 172.143 9.81128C171.705 9.81128 171.196 9.82125 170.618 9.84118C170.041 9.86111 169.482 9.891 168.944 9.93086C168.406 9.97072 167.978 10.0106 167.659 10.0504V7.06102C168.516 6.92152 169.443 6.8119 170.439 6.73219C171.436 6.65247 172.442 6.61261 173.458 6.61261C174.654 6.61261 175.651 6.69233 176.448 6.85176C177.265 6.99127 177.913 7.22046 178.391 7.53933C178.889 7.8582 179.258 8.26675 179.497 8.76499C179.756 9.24329 179.926 9.82125 180.005 10.4988C180.085 11.1565 180.125 11.9138 180.125 12.7708V22.0978H176.448L176.328 20.2443H176.089C175.75 20.8622 175.302 21.3205 174.744 21.6195C174.206 21.9184 173.628 22.1077 173.01 22.1875C172.412 22.2871 171.824 22.3369 171.246 22.3369ZM173.13 19.2877C173.568 19.2877 173.947 19.2578 174.266 19.198C174.604 19.1383 174.893 19.0386 175.132 18.8991C175.392 18.7397 175.591 18.5404 175.73 18.3012C175.87 18.0421 175.979 17.7233 176.059 17.3446C176.139 16.966 176.179 16.5076 176.179 15.9695V15.5211H172.562C172.004 15.5211 171.575 15.5609 171.276 15.6406C170.977 15.7204 170.778 15.8997 170.678 16.1787C170.579 16.4577 170.529 16.8763 170.529 17.4343C170.529 17.9525 170.589 18.351 170.708 18.6301C170.828 18.8891 171.077 19.0685 171.456 19.1682C171.834 19.2479 172.392 19.2877 173.13 19.2877Z" fill="#171717"/>
<path d="M159.59 22.3369C158.374 22.3369 157.368 22.2273 156.571 22.0081C155.794 21.7889 155.166 21.47 154.687 21.0515C154.229 20.633 153.89 20.1148 153.671 19.497C153.452 18.8592 153.312 18.1219 153.253 17.2848C153.193 16.4279 153.163 15.4812 153.163 14.4449C153.163 13.4484 153.193 12.5416 153.253 11.7245C153.332 10.8875 153.492 10.1501 153.731 9.51234C153.97 8.8746 154.319 8.34647 154.777 7.92795C155.236 7.4895 155.853 7.16067 156.631 6.94144C157.408 6.72222 158.384 6.61261 159.56 6.61261C160.318 6.61261 161.095 6.65247 161.892 6.73219C162.689 6.8119 163.367 6.92152 163.925 7.06102V10.0504C163.506 9.97072 162.978 9.91093 162.34 9.87107C161.703 9.83121 161.115 9.81128 160.577 9.81128C159.799 9.81128 159.182 9.87107 158.723 9.99065C158.285 10.1102 157.946 10.3394 157.707 10.6782C157.488 10.9971 157.338 11.4654 157.258 12.0832C157.179 12.7011 157.139 13.4982 157.139 14.4748C157.139 15.4712 157.179 16.2784 157.258 16.8962C157.338 17.514 157.497 17.9923 157.737 18.3311C157.976 18.65 158.325 18.8692 158.783 18.9888C159.261 19.0884 159.879 19.1383 160.636 19.1383C161.115 19.1383 161.653 19.1183 162.251 19.0785C162.868 19.0386 163.466 18.9888 164.044 18.929V21.8885C163.486 22.028 162.799 22.1376 161.982 22.2174C161.165 22.2971 160.367 22.3369 159.59 22.3369Z" fill="#171717"/>
<path d="M142.228 28.256C141.63 28.256 141.013 28.2361 140.375 28.1962C139.737 28.1763 139.129 28.1364 138.551 28.0767C137.973 28.0368 137.465 27.987 137.027 27.9272V24.9976C137.744 25.0175 138.352 25.0275 138.85 25.0275C139.369 25.0474 139.817 25.0573 140.196 25.0573C140.594 25.0573 140.953 25.0573 141.272 25.0573C142.288 25.0573 143.075 25.0075 143.633 24.9079C144.211 24.8082 144.63 24.6189 144.889 24.3399C145.168 24.0609 145.337 23.6623 145.397 23.1441C145.477 22.6459 145.517 21.9882 145.517 21.1711V20.1547H145.278C145.058 20.5932 144.739 20.9618 144.321 21.2608C143.922 21.5597 143.434 21.7889 142.856 21.9484C142.278 22.0879 141.591 22.1576 140.793 22.1576C139.757 22.1576 138.92 22.0281 138.282 21.769C137.645 21.5099 137.156 21.1312 136.818 20.633C136.499 20.1348 136.279 19.5269 136.16 18.8095C136.04 18.0721 135.98 17.2151 135.98 16.2386V6.85181H139.927V14.7738C139.927 15.7104 139.956 16.4478 140.016 16.9859C140.076 17.524 140.196 17.9226 140.375 18.1817C140.554 18.4208 140.823 18.5803 141.182 18.66C141.541 18.7198 142.019 18.7497 142.617 18.7497C143.255 18.7497 143.773 18.6799 144.171 18.5404C144.57 18.381 144.859 18.1418 145.038 17.823C145.238 17.4842 145.367 17.0557 145.427 16.5375C145.487 15.9994 145.517 15.3517 145.517 14.5944V6.85181H149.463V20.364C149.463 21.7391 149.393 22.9249 149.254 23.9214C149.114 24.9178 148.805 25.7349 148.327 26.3727C147.868 27.0104 147.151 27.4788 146.174 27.7777C145.198 28.0966 143.883 28.256 142.228 28.256Z" fill="#171717"/>
<path d="M122.814 22.3369C121.838 22.3369 121.011 22.1974 120.333 21.9184C119.655 21.6195 119.137 21.1412 118.778 20.4835C118.44 19.8059 118.27 18.919 118.27 17.8229C118.27 16.6471 118.41 15.7204 118.689 15.0428C118.968 14.3452 119.456 13.847 120.154 13.5481C120.851 13.2292 121.818 13.0697 123.053 13.0697C123.253 13.0697 123.532 13.0797 123.89 13.0996C124.249 13.0996 124.658 13.1096 125.116 13.1295C125.574 13.1295 126.033 13.1395 126.491 13.1594C126.95 13.1594 127.368 13.1694 127.747 13.1893V12.5914C127.747 11.9338 127.697 11.4156 127.597 11.0369C127.498 10.6583 127.308 10.3793 127.029 10.1999C126.75 10.0205 126.342 9.91093 125.804 9.87107C125.266 9.83121 124.568 9.81128 123.711 9.81128C123.273 9.81128 122.764 9.82125 122.186 9.84118C121.608 9.86111 121.05 9.891 120.512 9.93086C119.974 9.97072 119.546 10.0106 119.227 10.0504V7.06102C120.084 6.92152 121.011 6.8119 122.007 6.73219C123.004 6.65247 124.01 6.61261 125.026 6.61261C126.222 6.61261 127.219 6.69233 128.016 6.85176C128.833 6.99127 129.481 7.22046 129.959 7.53933C130.457 7.8582 130.826 8.26675 131.065 8.76499C131.324 9.24329 131.493 9.82125 131.573 10.4988C131.653 11.1565 131.693 11.9138 131.693 12.7708V22.0978H128.016L127.896 20.2443H127.657C127.318 20.8622 126.87 21.3205 126.312 21.6195C125.774 21.9184 125.196 22.1077 124.578 22.1875C123.98 22.2871 123.392 22.3369 122.814 22.3369ZM124.698 19.2877C125.136 19.2877 125.515 19.2578 125.834 19.198C126.172 19.1383 126.461 19.0386 126.7 18.8991C126.96 18.7397 127.159 18.5404 127.298 18.3012C127.438 18.0421 127.547 17.7233 127.627 17.3446C127.707 16.966 127.747 16.5076 127.747 15.9695V15.5211H124.13C123.572 15.5211 123.143 15.5609 122.844 15.6406C122.545 15.7204 122.346 15.8997 122.246 16.1787C122.147 16.4577 122.097 16.8763 122.097 17.4343C122.097 17.9525 122.157 18.351 122.276 18.6301C122.396 18.8891 122.645 19.0685 123.023 19.1682C123.402 19.2479 123.96 19.2877 124.698 19.2877Z" fill="#171717"/>
<path d="M99 22.0978V1.53064H105.995C107.769 1.53064 109.214 1.62032 110.33 1.79969C111.466 1.97905 112.353 2.29792 112.99 2.7563C113.648 3.19475 114.116 3.81256 114.395 4.60974C114.694 5.38699 114.884 6.36353 114.963 7.53937C115.043 8.7152 115.083 10.1402 115.083 11.8142C115.083 13.4883 115.043 14.9133 114.963 16.0891C114.884 17.2649 114.694 18.2514 114.395 19.0486C114.116 19.8259 113.648 20.4437 112.99 20.9021C112.353 21.3405 111.466 21.6494 110.33 21.8288C109.214 22.0081 107.769 22.0978 105.995 22.0978H99ZM103.245 18.6301H105.756C106.733 18.6301 107.53 18.6102 108.148 18.5703C108.785 18.5105 109.284 18.381 109.642 18.1817C110.021 17.9824 110.29 17.6436 110.449 17.1653C110.609 16.667 110.709 15.9894 110.748 15.1325C110.808 14.2755 110.838 13.1694 110.838 11.8142C110.838 10.479 110.808 9.38284 110.748 8.52587C110.709 7.64898 110.599 6.97138 110.42 6.49307C110.26 6.01476 109.991 5.67596 109.612 5.47667C109.254 5.25744 108.765 5.1279 108.148 5.08804C107.53 5.02826 106.733 4.99836 105.756 4.99836H103.245V18.6301Z" fill="#171717"/>
</svg>
